<?xml version="1.0" standalone="no"?>
<!DOCTYPE svg PUBLIC "-//W3C//DTD SVG 20010904//EN"
 "http://www.w3.org/TR/2001/REC-SVG-20010904/DTD/svg10.dtd">
<svg version="1.0" xmlns="http://www.w3.org/2000/svg"
 width="200.000000pt" height="200.000000pt" viewBox="0 0 200.000000 200.000000"
 preserveAspectRatio="xMidYMid meet">
<metadata>
Created by potrace 1.16, written by Peter Selinger 2001-2019
</metadata>
<g transform="translate(0.000000,200.000000) scale(0.100000,-0.100000)"
fill="#000000" stroke="none">
<path d="M286 1051 c-9 -49 -13 -96 -10 -105 8 -21 60 -21 72 0 8 15 10 15 15
0 8 -21 75 -22 104 -1 26 18 41 89 23 110 -8 9 -30 15 -56 15 -45 0 -74 -24
-74 -62 0 -17 -17 -34 -26 -26 -4 4 12 105 22 141 4 13 -1 17 -24 17 -29 0
-30 -1 -46 -89z"/>
<path d="M855 1128 c-2 -7 -9 -42 -15 -78 -6 -36 -13 -77 -16 -92 -5 -26 -3
-28 24 -28 26 0 31 4 36 35 4 19 11 35 15 35 5 0 12 -16 15 -35 6 -31 11 -35
36 -35 33 0 35 6 19 63 -9 34 -7 42 20 88 17 27 31 51 31 54 0 3 -13 5 -30 5
-24 0 -35 -8 -55 -40 -14 -22 -27 -40 -29 -40 -2 0 -2 18 1 40 5 38 4 40 -21
40 -15 0 -29 -6 -31 -12z"/>
<path d="M126 1108 c-18 -85 -26 -132 -26 -155 0 -25 1 -25 66 -21 76 5 95 20
94 78 -1 19 2 47 6 63 10 42 -9 57 -77 57 -53 0 -59 -2 -63 -22z"/>
<path d="M1649 1106 c-22 -7 -28 -17 -33 -54 -14 -105 -7 -122 50 -122 34 0
63 17 74 43 8 21 9 21 9 -5 1 -31 14 -37 92 -37 l56 0 -1 70 0 70 -61 -3 c-57
-3 -61 -5 -74 -35 -11 -25 -21 -33 -41 -33 -14 0 -31 -5 -38 -12 -15 -15 -26
-4 -19 17 4 9 19 15 41 15 22 0 36 6 40 16 11 28 6 34 -28 34 -29 0 -35 4 -38
23 -3 20 -6 22 -29 13z"/>
<path d="M1055 1073 c-11 -3 -28 -12 -37 -20 -22 -20 -34 -89 -18 -108 18 -22
93 -19 113 3 23 25 33 95 15 109 -18 15 -49 21 -73 16z"/>
<path d="M1206 1070 c-43 -5 -46 -10 -60 -97 -6 -42 -6 -43 23 -43 26 0 29 4
35 45 4 24 12 48 18 51 8 5 9 -5 5 -33 -8 -46 7 -67 45 -61 15 2 24 11 26 26
2 12 -1 22 -7 22 -5 0 -9 18 -8 41 2 48 -14 58 -77 49z"/>
<path d="M1363 1073 c-33 -6 -53 -41 -53 -89 0 -46 10 -54 64 -54 43 0 64 25
72 83 6 44 5 47 -20 57 -15 5 -30 9 -34 9 -4 -1 -17 -4 -29 -6z"/>
<path d="M1505 1071 c-12 -5 -26 -15 -31 -22 -17 -22 -25 -79 -14 -100 15 -27
83 -26 110 1 32 32 25 43 -20 37 -40 -5 -45 -2 -34 27 8 21 24 21 24 0 0 -24
54 -14 58 11 1 11 -2 26 -6 32 -11 17 -62 25 -87 14z"/>
<path d="M528 1053 c-21 -23 -33 -99 -18 -108 8 -5 8 -10 0 -20 -6 -8 -10 -24
-8 -37 2 -19 10 -24 44 -26 52 -4 72 18 90 100 23 107 22 108 -39 108 -39 0
-58 -5 -69 -17z"/>
</g>
</svg>
